<?xml version="1.0" standalone="no"?>
<!DOCTYPE svg PUBLIC "-//W3C//DTD SVG 20010904//EN"
 "http://www.w3.org/TR/2001/REC-SVG-20010904/DTD/svg10.dtd">
<svg version="1.0" xmlns="http://www.w3.org/2000/svg"
 width="192.000000pt" height="192.000000pt" viewBox="0 0 192.000000 192.000000"
 preserveAspectRatio="xMidYMid meet">
<metadata>
Created by potrace 1.11, written by Peter Selinger 2001-2013
</metadata>
<g transform="translate(0.000000,192.000000) scale(0.100000,-0.100000)"
fill="#000000" stroke="none">
<path d="M0 960 l0 -960 960 0 960 0 0 356 0 356 -51 -41 c-60 -47 -77 -50
-116 -17 l-28 24 -5 293 -5 292 -38 30 c-25 21 -41 27 -47 21 -7 -7 -10 -55
-8 -120 3 -104 4 -109 26 -112 28 -4 28 -15 -3 -60 -22 -33 -25 -47 -25 -129
0 -86 1 -92 22 -95 12 -2 23 -8 25 -15 4 -12 -157 -145 -184 -151 -15 -4 -116
84 -121 106 -2 8 4 22 13 31 13 15 15 37 13 117 l-3 99 -60 0 -60 0 -5 -145
c-6 -166 -18 -199 -85 -237 -43 -23 -123 -30 -155 -13 -27 15 -70 -4 -70 -30
0 -16 -5 -21 -22 -18 -18 2 -24 10 -26 39 -4 52 37 94 103 103 66 10 84 21
101 61 21 52 3 125 -42 165 -38 33 -59 37 -88 15 -25 -19 -56 -19 -56 0 0 26
54 73 100 88 l45 15 7 60 c9 77 36 129 93 180 46 40 231 142 257 142 20 -1 64
-42 82 -77 9 -18 18 -33 21 -33 2 0 43 25 90 56 l86 56 27 -18 c15 -10 33 -24
40 -31 30 -30 53 -35 72 -18 21 19 50 14 50 -7 0 -7 -9 -24 -20 -38 -18 -23
-20 -42 -20 -287 0 -150 4 -264 9 -268 5 -3 21 0 35 6 l26 12 0 579 0 578
-960 0 -960 0 0 -960z m402 426 c148 -66 152 -67 167 -46 16 24 51 27 51 4 0
-8 -22 -53 -50 -100 -27 -47 -50 -86 -50 -88 0 -2 39 -6 86 -9 47 -2 91 -10
97 -16 6 -6 18 -11 27 -11 25 0 91 -60 106 -96 53 -126 -37 -267 -235 -369
l-53 -28 -74 18 -73 18 -78 -28 c-102 -37 -215 -39 -262 -6 -41 29 -51 82 -24
119 30 41 70 56 156 60 64 3 80 8 92 25 8 11 12 23 10 27 -2 4 -40 10 -83 12
-91 7 -135 26 -157 68 -31 60 -14 127 42 161 23 14 36 32 44 61 6 22 22 59 35
80 32 50 145 168 161 168 7 0 36 -11 65 -24z"/>
<path d="M285 1291 c-53 -23 -76 -95 -41 -129 20 -20 85 -42 92 -31 3 5 31 9
64 9 56 0 59 1 79 36 12 19 21 39 21 45 0 13 -119 69 -160 74 -19 3 -44 1 -55
-4z"/>
<path d="M125 1050 c-15 -48 47 -80 154 -80 71 0 82 2 95 22 9 12 16 26 16 30
0 5 -40 8 -88 8 -68 0 -97 4 -127 20 -47 24 -42 24 -50 0z"/>
<path d="M470 1039 c-25 -10 -40 -26 -40 -44 0 -6 33 -9 87 -7 96 4 151 -13
178 -54 35 -53 3 -126 -73 -166 -44 -24 -50 -41 -15 -46 26 -4 95 53 123 101
31 54 24 126 -15 167 -49 51 -176 76 -245 49z"/>
<path d="M455 883 c-33 -2 -70 -5 -81 -8 -24 -5 -52 -61 -38 -74 11 -10 88
-32 137 -38 65 -9 143 61 113 102 -13 19 -39 22 -131 18z"/>
<path d="M108 710 c-43 -27 -3 -70 64 -70 40 0 148 30 148 41 0 23 -182 48
-212 29z"/>
<path d="M1302 1298 c-11 -13 -25 -36 -31 -51 -10 -27 -16 -159 -7 -168 2 -2
32 -2 65 -1 l61 4 0 90 c0 85 -9 124 -34 140 -18 13 -32 9 -54 -14z"/>
<path d="M1540 1252 c-20 -16 -24 -29 -26 -84 -2 -76 4 -91 37 -86 23 3 24 7
27 87 2 46 -1 88 -6 93 -5 5 -19 1 -32 -10z"/>
<path d="M1195 1198 c-3 -13 -6 -117 -7 -233 -3 -177 -6 -215 -20 -244 -23
-43 -23 -43 6 -30 13 6 29 22 35 36 14 31 15 493 1 493 -5 0 -12 -10 -15 -22z"/>
<path d="M1520 969 c-9 -15 -10 -49 -6 -107 9 -111 26 -143 55 -108 8 9 11 51
9 122 -3 103 -4 109 -25 112 -14 2 -26 -4 -33 -19z"/>
</g>
</svg>
